<?xml version="1.0" encoding="UTF-8"?>
<svg width="16px" height="16px" viewBox="0 0 16 16" version="1.1" xmlns="http://www.w3.org/2000/svg" xmlns:xlink="http://www.w3.org/1999/xlink">
    <title>编组 14备份</title>
    <defs>
        <filter id="filter-1">
            <feColorMatrix in="SourceGraphic" type="matrix" values="0 0 0 0 0.866667 0 0 0 0 0.866667 0 0 0 0 0.866667 0 0 0 1.000000 0"></feColorMatrix>
        </filter>
    </defs>
    <g id="页面-1" stroke="none" stroke-width="1" fill="none" fill-rule="evenodd">
        <g id="左侧菜单栏" transform="translate(-222.000000, -498.000000)">
            <g id="左侧菜单栏展开" transform="translate(206.000000, 24.000000)">
                <g id="编组-14备份" transform="translate(16.000000, 474.000000)">
                    <rect id="矩形" stroke="#979797" fill="#D8D8D8" opacity="0" x="0.5" y="0.5" width="15" height="15"></rect>
                    <g filter="url(#filter-1)" id="设备-(1)">
                        <g transform="translate(1.000000, 2.000000)">
                            <path d="M13.6311929,0.0110307173 L0.729759142,0.0110307173 C0.657278679,0.0110307173 0.584798215,0.0110307173 0.512317751,0.0110307173 C0.236713691,0.0110307173 0.0130796767,0.234048871 0.012319652,0.509651883 L0.00404661397,3.50965188 C0.00328510474,3.78579321 0.226524553,4.01026731 0.502665878,4.01102882 C0.503125489,4.01103008 0.503585101,4.01103072 0.504044713,4.01103072 C0.579282856,4.01103072 0.654520999,4.01103072 0.729759142,4.01103072 L13.1978877,4.01103072 C13.2699092,4.01103072 13.3419307,4.01103072 13.4139521,4.01103072 C13.6900945,4.01103072 13.9139521,3.78717309 13.9139521,3.51103072 L13.9139521,0.29378995 C13.9139521,0.137626338 13.7873565,0.0110307173 13.6311929,0.0110307173 C13.6311929,0.0110307173 13.6311929,0.0110307173 13.6311929,0.0110307173 Z M4.61343723,2.01855469 C4.61343723,2.3754217 4.32415279,2.66470614 3.96728578,2.66470614 L1.64897079,2.66470614 C1.29194842,2.66470614 1.00266397,2.3754217 1.00266397,2.01855469 L1.00266397,1.65718217 C1.00266397,1.30031516 1.29194842,1.01103072 1.64897079,1.01103072 L3.96728578,1.01103072 C4.32415279,1.01103072 4.61343723,1.30031516 4.61343723,1.65718217 L4.61343723,2.01855469 L4.61343723,2.01855469 Z M13.7194823,5.01103072 L0.735776504,5.01103072 C0.661771011,5.01103072 0.587765518,5.01103072 0.513760024,5.01103072 C0.238159397,5.01103072 0.0145268117,5.23404352 0.0137619499,5.50964309 L0.00543615503,8.50964309 C0.00466978972,8.7857844 0.227905291,9.01026243 0.504046602,9.01102879 C0.504509144,9.01103008 0.504971686,9.01103072 0.50543423,9.01103072 C0.582214988,9.01103072 0.658995746,9.01103072 0.735776504,9.01103072 L13.2834139,9.01103072 C13.3569575,9.01103072 13.4305011,9.01103072 13.5040447,9.01103072 C13.780187,9.01103072 14.0040447,8.78717309 14.0040447,8.51103072 L14.0040447,5.2955931 C14.0040447,5.13843363 13.8766418,5.01103072 13.7194823,5.01103072 C13.7194823,5.01103072 13.7194823,5.01103072 13.7194823,5.01103072 Z M4.61481793,7.01855469 C4.61481793,7.3754217 4.32553349,7.66470614 3.96866648,7.66470614 L1.65035149,7.66470614 C1.29332912,7.66470614 1.00404467,7.3754217 1.00404467,7.01855469 L1.00404467,6.65718217 C1.00404467,6.30031516 1.29332912,6.01103072 1.65035149,6.01103072 L3.96866648,6.01103072 C4.32553349,6.01103072 4.61481793,6.30031516 4.61481793,6.65718217 L4.61481793,7.01855469 L4.61481793,7.01855469 Z M13.3272816,12.1372241 L0.71932706,12.1372241 C0.570609908,12.1372241 0.421892756,12.1372241 0.273175604,12.1372241 C0.162718654,12.1372241 0.0731756037,12.0476811 0.0731756037,11.9372241 L0.0731756037,10.7218395 C0.0731756037,10.6113825 0.162718654,10.5218395 0.273175604,10.5218395 C0.421892756,10.5218395 0.570609908,10.5218395 0.71932706,10.5218395 L13.3271262,10.5218395 C13.4758466,10.5218395 13.624567,10.5218395 13.7732873,10.5218395 C13.8837443,10.5218395 13.9732873,10.6113825 13.9732873,10.7218395 L13.9732873,11.9372241 C13.9732873,12.0476811 13.8837443,12.1372241 13.7732873,12.1372241 C13.6246188,12.1372241 13.4759502,12.1372241 13.3272816,12.1372241 Z" id="形状" fill="#000000" fill-rule="nonzero"></path>
                        </g>
                    </g>
                </g>
            </g>
        </g>
    </g>
</svg>