<?xml version="1.0" encoding="UTF-8"?>
<svg width="16px" height="16px" viewBox="0 0 16 16" version="1.1" xmlns="http://www.w3.org/2000/svg" xmlns:xlink="http://www.w3.org/1999/xlink">
    <title>编组 22备份</title>
    <g id="页面-1" stroke="none" stroke-width="1" fill="none" fill-rule="evenodd">
        <g id="左侧菜单栏" transform="translate(-222.000000, -658.000000)">
            <g id="左侧菜单栏展开" transform="translate(206.000000, 24.000000)">
                <g id="编组-22备份" transform="translate(16.000000, 634.000000)">
                    <path d="M8.20163596,2.05220192 L13.7963253,5.17798932 C13.923622,5.24759188 14,5.38046948 14,5.52600209 C14,5.6715347 13.923622,5.8044123 13.7963253,5.87401486 L8.20163596,8.99980227 C8.08070411,9.06940482 7.92794809,9.06940482 7.80701624,8.99980227 L2.21232689,5.87401486 C2.08503021,5.8044123 2.0086522,5.6715347 2.0086522,5.52600209 C2.0086522,5.38046948 2.08503021,5.24759188 2.21232689,5.17798932 L7.80701624,2.05220192 C7.92794809,1.98259936 8.08070411,1.98259936 8.20163596,2.05220192 Z M2,10.6125326 L7.79836404,13.8332326 C7.91929589,13.9028352 8.07205191,13.9028352 8.19298376,13.8332326 L13.7188879,10.7397497 C13.8070994,10.6903676 13.9186411,10.721845 13.9680232,10.8100565 C13.983317,10.837376 13.9913478,10.8681617 13.9913478,10.8994708 L13.9913478,11.4929804 C13.984983,11.6321855 13.908605,11.7587356 13.7876731,11.8220107 L8.19298376,14.9477981 C8.07205191,15.0174006 7.91929589,15.0174006 7.79836404,14.9477981 L2.2036747,11.8283382 C2.08274285,11.7587356 2,11.6321855 2,11.4929804 L2,10.6125326 Z M14,6.72090923 L14,9.41129798 C13.9936352,9.55050309 13.9172572,9.67705319 13.7963253,9.74032824 L8.20163596,12.8661156 C8.08070411,12.9357182 7.92794809,12.9357182 7.80701624,12.8661156 L2.47380289,9.85404883 C2.18639116,9.6917258 2.0086522,9.38721633 2.0086522,9.05713412 L2.0086522,6.74621925 L2.61331145,7.068922 L2.65786529,7.09423202 L7.80701624,9.96691923 C7.92794809,10.0365218 8.08070411,10.0365218 8.20163596,9.96691923 L13.3826111,7.068922 L14,6.72090923 Z" id="形状" fill="#DDDDDD" fill-rule="nonzero"></path>
                    <rect id="矩形" stroke="#979797" fill="#D8D8D8" opacity="0" x="0.5" y="0.5" width="15" height="15"></rect>
                </g>
            </g>
        </g>
    </g>
</svg>