<?xml version="1.0" encoding="UTF-8"?>
<svg width="16px" height="16px" viewBox="0 0 16 16" version="1.1" xmlns="http://www.w3.org/2000/svg" xmlns:xlink="http://www.w3.org/1999/xlink">
    <title>编组 3备份</title>
    <defs>
        <filter id="filter-1">
            <feColorMatrix in="SourceGraphic" type="matrix" values="0 0 0 0 1.000000 0 0 0 0 1.000000 0 0 0 0 1.000000 0 0 0 0.850000 0"></feColorMatrix>
        </filter>
    </defs>
    <g id="页面-1" stroke="none" stroke-width="1" fill="none" fill-rule="evenodd">
        <g id="左侧菜单栏" transform="translate(-222.000000, -458.000000)">
            <g id="左侧菜单栏展开" transform="translate(206.000000, 24.000000)">
                <g id="编组-3备份" transform="translate(16.000000, 434.000000)">
                    <rect id="矩形" stroke="#979797" fill="#D8D8D8" opacity="0" x="0.5" y="0.5" width="15" height="15"></rect>
                    <g filter="url(#filter-1)" id="时空分析">
                        <g transform="translate(1.000000, 2.000000)">
                            <path d="M8.003625,9.583875 C6.55392909,10.0554786 5.04217473,10.3089367 3.5179375,10.3359375 C1.7198125,10.3359375 0.396375,9.8739375 0.0730625,8.990625 C-0.2506875,8.1073125 0.5219375,6.9645625 1.9849375,5.9390625 L1.9849375,7.158375 C1.1921875,7.84525 0.93275,8.421875 1.0320625,8.6953125 C1.1545625,9.037 1.988,9.40625 3.5179375,9.40625 C4.93279332,9.3751007 6.3353287,9.13554636 7.6803125,8.6953125 C9.21733137,8.24455028 10.6572236,7.51214268 11.9266875,6.535375 C12.7806875,5.81875 13.0606875,5.2171875 12.9583125,4.9385 C12.8883125,4.746875 12.5943125,4.54475 12.0841875,4.40475 L12.0841875,3.4405 C13.0431875,3.64 13.710375,4.04425 13.9260625,4.6379375 C14.483,6.1691875 11.8335,8.3838125 8.012375,9.5869375 L8.003625,9.5843125 L8.003625,9.583875 Z M7.7735,0 L11.6585,0 L11.6585,6.054125 L11.52725,6.239625 C10.4152693,7.14279393 9.13977825,7.82339253 7.7704375,8.24425 L7.7735,0 Z M2.7195,8.96875 L2.7195,2.5948125 L6.6075625,2.5948125 L6.6075625,8.6078125 C5.5969375,8.8353125 4.5600625,8.9429375 3.521,8.927625 C3.255,8.957375 2.98725,8.971375 2.7195,8.96875 L2.7195,8.96875 Z M3.521,10.8005625 C4.55990508,10.7809107 5.5941026,10.655429 6.6075625,10.4260625 L6.6075625,12.25 L2.7195,12.25 L2.7195,10.7926875 C2.986375,10.80975 3.254125,10.80975 3.521,10.7926875 L3.521,10.8005625 Z M8.161125,10.0296875 C9.3746907,9.68297611 10.547277,9.2062554 11.6585,8.6078125 L11.6585,12.25 L7.7791875,12.25 L7.7791875,10.4260625 C7.9891875,10.36875 7.959875,10.0900625 8.169875,10.0244375 L8.161125,10.0296875 L8.161125,10.0296875 Z" id="形状" fill="#000000" fill-rule="nonzero"></path>
                        </g>
                    </g>
                </g>
            </g>
        </g>
    </g>
</svg>