<?xml version="1.0" encoding="UTF-8"?>
<svg width="16px" height="16px" viewBox="0 0 16 16" version="1.1" xmlns="http://www.w3.org/2000/svg" xmlns:xlink="http://www.w3.org/1999/xlink">
    <title>编组 23备份</title>
    <defs>
        <filter id="filter-1">
            <feColorMatrix in="SourceGraphic" type="matrix" values="0 0 0 0 0.866667 0 0 0 0 0.866667 0 0 0 0 0.866667 0 0 0 1.000000 0"></feColorMatrix>
        </filter>
    </defs>
    <g id="页面-1" stroke="none" stroke-width="1" fill="none" fill-rule="evenodd">
        <g id="左侧菜单栏" transform="translate(-222.000000, -578.000000)">
            <g id="左侧菜单栏展开" transform="translate(206.000000, 24.000000)">
                <g id="编组" transform="translate(16.000000, 28.000000)">
                    <g id="编组-23备份" transform="translate(0.000000, 526.000000)">
                        <rect id="矩形" stroke="#979797" fill="#D8D8D8" opacity="0" x="0.5" y="0.5" width="15" height="15"></rect>
                        <g filter="url(#filter-1)" id="行政处罚">
                            <g transform="translate(2.000000, 1.000000)">
                                <path d="M2.5436443,10.1639936 L2.5436443,9.21243107 C2.5436443,8.51178768 3.11159007,7.94368107 3.8123943,7.94368107 L3.8123943,6.19528952 C2.32537684,4.9691636 2.11386489,2.76960018 3.34015165,1.28258272 C4.56627757,-0.204434743 6.76584099,-0.415946691 8.25285846,0.810340074 C9.73987592,2.03662684 9.95138787,4.23602941 8.7251011,5.72304687 C8.58312728,5.89517924 8.42499082,6.0533157 8.25285846,6.19528952 L8.25285846,7.94384191 C8.95350184,7.94384191 9.52160846,8.51194853 9.52160846,9.21259191 L9.52160846,10.1641544 L2.5436443,10.1639936 Z" id="路径" fill="#2C2C2C" fill-rule="nonzero"></path>
                                <path d="M11.4242509,9.74993107 C11.5023223,9.74993107 11.5803937,9.74993107 11.6584651,9.74993107 C11.879379,9.74993107 12.0584651,9.92901717 12.0584651,10.1499311 L12.0584651,11.4327436 C12.0584651,11.6079214 11.9164554,11.7499311 11.7412776,11.7499311 C11.7412776,11.7499311 11.7412776,11.7499311 11.7412776,11.7499311 L0.323331801,11.7499311 C0.323331801,11.7499311 0.323331801,11.7499311 0.323331801,11.7499311 C0.148153982,11.7499311 0.00614430147,11.6079214 0.00614430147,11.4327436 L0.00614430147,10.1499311 C0.00614430147,9.92901717 0.185230402,9.74993107 0.406144301,9.74993107 C0.484215686,9.74993107 0.562287071,9.74993107 0.640358456,9.74993107 L11.4242509,9.74993107 Z M0.206144301,12.7499311 L11.8061443,12.7499311 C11.9166013,12.7499311 12.0061443,12.8394741 12.0061443,12.9499311 L12.0061443,13.9499311 C12.0061443,14.060388 11.9166013,14.1499311 11.8061443,14.1499311 L0.206144301,14.1499311 C0.0956873515,14.1499311 0.00614430147,14.060388 0.00614430147,13.9499311 L0.00614430147,12.9499311 C0.00614430147,12.8394741 0.0956873515,12.7499311 0.206144301,12.7499311 Z" id="形状" fill="#2C2C2C" fill-rule="nonzero"></path>
                            </g>
                        </g>
                    </g>
                </g>
            </g>
        </g>
    </g>
</svg>