<?xml version="1.0" encoding="UTF-8"?>
<svg width="16px" height="16px" viewBox="0 0 16 16" version="1.1" xmlns="http://www.w3.org/2000/svg" xmlns:xlink="http://www.w3.org/1999/xlink">
    <title>编组 9备份</title>
    <defs>
        <filter id="filter-1">
            <feColorMatrix in="SourceGraphic" type="matrix" values="0 0 0 0 0.866667 0 0 0 0 0.866667 0 0 0 0 0.866667 0 0 0 1.000000 0"></feColorMatrix>
        </filter>
    </defs>
    <g id="页面-1" stroke="none" stroke-width="1" fill="none" fill-rule="evenodd">
        <g id="左侧菜单栏" transform="translate(-222.000000, -378.000000)">
            <g id="左侧菜单栏展开" transform="translate(206.000000, 24.000000)">
                <g id="编组" transform="translate(16.000000, 28.000000)">
                    <g id="编组-9备份" transform="translate(0.000000, 326.000000)">
                        <rect id="矩形" stroke="#979797" fill="#D8D8D8" opacity="0" x="0.5" y="0.5" width="15" height="15"></rect>
                        <g filter="url(#filter-1)" id="人员-(3)">
                            <g transform="translate(1.000000, 2.000000)">
                                <path d="M10.6062176,11.9861324 C10.8100173,11.9861324 10.9758204,11.8300981 10.9827288,11.6320546 L10.9861831,11.5090276 L10.9913644,11.5090276 C10.9965458,11.4190078 11,11.3394904 11,11.2629736 C11,9.13100533 9.63903282,7.24509115 7.53195164,6.45591784 L7.29533679,6.3673984 L7.50431779,6.23686973 C8.51295337,5.60223035 9.11571675,4.54299772 9.11571675,3.40574796 C9.11571675,1.52733543 7.49395509,0 5.49913644,0 C3.50431779,0 1.88255613,1.52733543 1.88255613,3.40424763 C1.88255613,4.54299772 2.4835924,5.60223035 3.49395509,6.2353694 L3.7029361,6.36589807 L3.46632124,6.45441751 C1.36096718,7.24659148 0,9.13400599 0,11.2629736 C0,11.3394904 0.00345423143,11.4160072 0.00863557858,11.5090276 L0.0189982729,11.5090276 L0.0207253886,11.6350553 C0.0207253886,11.8375998 0.191709845,11.9996353 0.398963731,11.9996353 C0.606217617,12.002636 10.4006908,11.9861324 10.6062176,11.9861324" id="形状" fill="#000000" fill-rule="nonzero"></path>
                                <path d="M13.9843014,11 L13.9874411,10.8836579 C13.9968603,10.7985296 14,10.7233329 14,10.6509738 C14,8.63485103 12.7629513,6.85141236 10.8477237,6.1051206 L10.6326531,6.02141107 L10.822606,5.89797498 C11.7394035,5.2978202 12.2872841,4.29614343 12.2872841,3.22068877 C12.2872841,1.44434412 10.8131868,0 9,0" id="路径" stroke="#979797" stroke-width="0.95" stroke-linecap="round" fill-rule="nonzero" transform="translate(11.500000, 5.500000) rotate(-360.000000) translate(-11.500000, -5.500000) "></path>
                            </g>
                        </g>
                    </g>
                </g>
            </g>
        </g>
    </g>
</svg>