<?xml version="1.0" encoding="UTF-8"?>
<svg width="48px" height="46px" viewBox="0 0 48 46" version="1.1" xmlns="http://www.w3.org/2000/svg" xmlns:xlink="http://www.w3.org/1999/xlink">
    <title>编组 6</title>
    <defs>
        <linearGradient x1="50%" y1="0%" x2="50%" y2="100%" id="linearGradient-1">
            <stop stop-color="#F9C95E" offset="0%"></stop>
            <stop stop-color="#F19830" offset="100%"></stop>
        </linearGradient>
        <linearGradient x1="50%" y1="0%" x2="50%" y2="100%" id="linearGradient-2">
            <stop stop-color="#F9C95E" offset="0%"></stop>
            <stop stop-color="#F19830" offset="100%"></stop>
        </linearGradient>
        <linearGradient x1="11.0223299%" y1="-29.5631896%" x2="50%" y2="84.3636755%" id="linearGradient-3">
            <stop stop-color="#F9C95E" offset="0%"></stop>
            <stop stop-color="#C45F00" offset="100%"></stop>
        </linearGradient>
        <path d="M9.77027027,14.2885135 L9.77027027,7.87121622 C9.77027027,7.7577027 9.72162162,7.64418919 9.63243243,7.56094595 C9.54324324,7.4777027 9.42972973,7.4322973 9.3,7.4322973 L3.88378378,7.4322973 L1.5,13.947973 L1.5,14.2885135 L9.77027027,14.2885135 Z" id="path-4"></path>
        <filter x="-24.2%" y="-29.2%" width="148.4%" height="158.3%" filterUnits="objectBoundingBox" id="filter-5">
            <feGaussianBlur stdDeviation="1.5" in="SourceAlpha" result="shadowBlurInner1"></feGaussianBlur>
            <feOffset dx="0" dy="1" in="shadowBlurInner1" result="shadowOffsetInner1"></feOffset>
            <feComposite in="shadowOffsetInner1" in2="SourceAlpha" operator="arithmetic" k2="-1" k3="1" result="shadowInnerInner1"></feComposite>
            <feColorMatrix values="0 0 0 0 0.301960784   0 0 0 0 0.168627451   0 0 0 0 0  0 0 0 0.104649257 0" type="matrix" in="shadowInnerInner1"></feColorMatrix>
        </filter>
    </defs>
    <g id="页面-1" stroke="none" stroke-width="1" fill="none" fill-rule="evenodd">
        <g id="首页" transform="translate(-449.000000, -84.000000)">
            <g id="编组-6" transform="translate(449.000000, 84.000000)">
                <rect id="矩形" fill="#FFFBF2" x="0" y="0" width="48" height="46" rx="3.55555556"></rect>
                <g id="编组" transform="translate(6.000000, 9.000000)" fill-rule="nonzero">
                    <path d="M2.95945946,26.8658108 C2.95945946,27.2544999 9.60258574,27.5695946 17.7972973,27.5695946 C25.9920089,27.5695946 32.6351351,27.2544999 32.6351351,26.8658108 C32.6351351,26.6143731 29.8070593,26.382035 25.2162163,26.2563162 C20.6253732,26.1305973 14.9692214,26.1305973 10.3783783,26.2563162 C5.78753528,26.382035 2.95945946,26.6143731 2.95945946,26.8658108 L2.95945946,26.8658108 Z" id="路径" fill="#E5E5E5"></path>
                    <path d="M14.2216216,0.780405405 C14.2216216,0.48527027 14.472973,0.243108108 14.7972973,0.243108108 L35.2945946,0.243108108 C35.6108108,0.243108108 35.8702703,0.477702703 35.8702703,0.780405405 L35.8702703,21.9998649 C35.8702703,22.295 35.6108108,22.5371622 35.2945946,22.5371622 L14.7891892,22.5371622 C14.6351351,22.5371622 14.4891892,22.4841892 14.3837838,22.3782432 C14.2783784,22.2798649 14.2135135,22.1436486 14.2135135,21.9998649 L14.2216216,0.780405405 L14.2216216,0.780405405 Z" id="路径" fill="url(#linearGradient-1)"></path>
                    <polygon id="路径" opacity="0.373488653" points="14.2216216 7.93932432 35.8702703 7.93932432 35.8702703 14.2885135 14.2216216 14.2885135"></polygon>
                    <path d="M0.186486486,13.8647297 L0.186486486,22.2117568 C0.186486486,22.5144595 0.445945946,22.7490541 0.762162162,22.7490541 L13.3945946,22.7490541 C13.7108108,22.7490541 13.9702703,22.5144595 13.9702703,22.2117568 L13.9702703,6.3577027 C13.9702703,6.06256757 13.7189189,5.82040541 13.3945946,5.82040541 L3.14594595,5.82040541" id="路径" fill="url(#linearGradient-2)"></path>
                    <g id="路径">
                        <use fill="url(#linearGradient-3)" xlink:href="#path-4"></use>
                        <use fill="black" fill-opacity="1" filter="url(#filter-5)" xlink:href="#path-4"></use>
                    </g>
                    <path d="M30.8918919,22.5371622 C30.8918919,20.6301351 29.2378378,19.0863514 27.1945946,19.0863514 C25.1513514,19.0863514 23.4972973,20.6301351 23.4972973,22.5371622 C23.4972973,23.7706757 24.2027027,24.9058108 25.3459459,25.5263514 C26.4891892,26.1468919 27.9,26.1468919 29.0432432,25.5263514 C30.1864865,24.9133784 30.8918919,23.7706757 30.8918919,22.5371622 L30.8918919,22.5371622 Z" id="路径" fill="#996101"></path>
                    <path d="M27.1945946,26.6993243 C24.7378378,26.6993243 22.7432432,24.8301351 22.7432432,22.5447297 C22.7432432,20.2517568 24.7459459,18.3901351 27.1945946,18.3901351 C29.6513514,18.3901351 31.6459459,20.2517568 31.6459459,22.5447297 C31.6459459,24.8301351 29.6432432,26.6993243 27.1945946,26.6993243 Z M27.1945946,19.8052703 C26.0108108,19.8052703 24.9324324,20.4787838 24.4864865,21.5004054 C24.0324324,22.522027 24.2837838,23.7025676 25.1189189,24.4895946 C25.9621622,25.2766216 27.227027,25.5112162 28.3216216,25.0798649 C29.4243243,24.6560811 30.1378378,23.6571622 30.1378378,22.5447297 C30.1216216,21.0312162 28.8081081,19.8052703 27.1945946,19.8052703 L27.1945946,19.8052703 Z" id="形状" fill="#4D2B00"></path>
                    <path d="M10.7675676,22.5371622 C10.7675676,21.3036486 10.0621622,20.1685135 8.91891892,19.547973 C7.77567568,18.9274324 6.36486486,18.9274324 5.22162162,19.547973 C4.07837838,20.1685135 3.37297297,21.3036486 3.37297297,22.5371622 C3.37297297,23.7706757 4.07837838,24.9058108 5.22162162,25.5263514 C6.36486486,26.1468919 7.77567568,26.1468919 8.91891892,25.5263514 C10.0702703,24.9133784 10.7675676,23.7706757 10.7675676,22.5371622 Z" id="路径" fill="#996101"></path>
                    <path d="M7.07837838,26.6993243 C4.62162162,26.6993243 2.62702703,24.8301351 2.62702703,22.5447297 C2.62702703,20.2517568 4.62162162,18.3901351 7.07837838,18.3901351 C9.53513514,18.3901351 11.5297297,20.2517568 11.5297297,22.5447297 C11.5297297,24.8301351 9.52702703,26.6993243 7.07837838,26.6993243 Z M7.07837838,19.8052703 C5.45675676,19.8052703 4.14324324,21.0312162 4.14324324,22.5447297 C4.14324324,24.0582432 5.45675676,25.2841892 7.07837838,25.2841892 C8.7,25.2841892 10.0135135,24.0582432 10.0135135,22.5447297 C10.0135135,21.0312162 8.69189189,19.8052703 7.07837838,19.8052703 Z" id="形状" fill="#4D2B00"></path>
                </g>
            </g>
        </g>
    </g>
</svg>