<?xml version="1.0" encoding="UTF-8"?>
<svg width="16px" height="16px" viewBox="0 0 16 16" version="1.1" xmlns="http://www.w3.org/2000/svg" xmlns:xlink="http://www.w3.org/1999/xlink">
    <title>编组 2</title>
    <defs>
        <filter id="filter-1">
            <feColorMatrix in="SourceGraphic" type="matrix" values="0 0 0 0 0.866667 0 0 0 0 0.866667 0 0 0 0 0.866667 0 0 0 1.000000 0"></feColorMatrix>
        </filter>
    </defs>
    <g id="页面-1" stroke="none" stroke-width="1" fill="none" fill-rule="evenodd">
        <g id="左侧菜单栏" transform="translate(-222.000000, -698.000000)">
            <g id="左侧菜单栏展开" transform="translate(206.000000, 24.000000)">
                <g id="导航/左侧/1级备份4备份" transform="translate(0.000000, 662.000000)">
                    <g id="编组-2" transform="translate(16.000000, 12.000000)">
                        <g filter="url(#filter-1)" id="编组">
                            <g transform="translate(2.000000, 2.000000)">
                                <path d="M2.21650752,7.10373264 C2.21650752,4.71137153 4.15747974,2.77039931 6.56488715,2.77039931 C8.97229456,2.77039931 10.9132668,4.71137153 10.9132668,7.10373264 L10.9132668,11.1060474 L12.7367059,11.1060474 C12.8597865,11.1060474 12.9595631,11.205824 12.9595631,11.3289046 C12.9595631,11.4401899 12.9595631,11.5514751 12.9595631,11.6627604 C12.9595631,11.7740457 12.9595631,11.885331 12.9595631,11.9966162 C12.9595631,12.1196968 12.8597865,12.2194734 12.7367059,12.2194734 L0.23684482,12.2194734 C0.10863586,12.2194734 0.00470196289,12.1155395 0.00470196289,11.9873305 C0.00470196289,11.8791405 0.00470196289,11.7709505 0.00470196289,11.6627604 C0.00470196289,11.5545704 0.00470196289,11.4463803 0.00470196289,11.3381903 C0.00470196289,11.2099813 0.10863586,11.1060474 0.23684482,11.1060474 L2.21650752,11.1060474 L2.21650752,11.1060474 L2.21650752,7.10373264 Z M6.88085937,4.50072338 L4.72923901,8.036603 L6.44451679,8.036603 L6.02322049,10.6697049 L8.15979456,7.14887153 L6.44451679,7.14887153 L6.88085937,4.50072338 Z M10.3324166,1.40653911 L9.4718316,2.90581597 L9.4718316,2.90581597 L8.74960937,2.48451967 L9.61115375,0.983571374 C9.67492157,0.872284087 9.81686062,0.833868566 9.92809994,0.897719941 C9.92916231,0.898329741 9.93021984,0.898947937 9.93127243,0.89957447 C9.98204828,0.929797854 10.034534,0.961585143 10.0887297,0.994936338 C10.1436296,1.02872084 10.1967282,1.06055428 10.2480255,1.09043665 C10.3582042,1.15474181 10.3959241,1.29589884 10.3324166,1.40653911 Z M6.49266493,0.00188078234 C6.56574694,0.00188078234 6.63882895,0.00188078234 6.71191096,0.00188078234 C6.84011992,0.00188078234 6.94405382,0.10581468 6.94405382,0.234023639 L6.94405382,1.942853 L6.94405382,1.942853 L6.02622974,1.942853 L6.02622974,0.234023639 C6.02622974,0.10581468 6.13016364,0.00188078234 6.2583726,0.00188078234 C6.33647004,0.00188078234 6.41456749,0.00188078234 6.49266493,0.00188078234 Z M2.89660012,0.994936338 C2.95822376,0.9570141 3.01955831,0.92252922 3.08060376,0.891481698 C3.19134722,0.835295502 3.3267367,0.876132288 3.38783566,0.984242901 L4.23572049,2.48451967 L4.23572049,2.48451967 L3.51349826,2.90581597 L2.66262029,1.40024302 C2.60245282,1.29374442 2.63523391,1.15882538 2.73757015,1.09182261 C2.78568365,1.06032118 2.83869364,1.02802576 2.89660012,0.994936338 Z M0.263498264,3.6430845 C0.292504179,3.59594988 0.319314163,3.55148195 0.343928216,3.50968069 C0.407765976,3.40166142 0.545870135,3.36377186 0.6557961,3.42426702 L2.1743779,4.25998264 L2.1743779,4.25998264 L1.7380353,4.98220486 L0.233514995,4.15422764 C0.12135896,4.09230764 0.0804440184,3.95124641 0.142212372,3.83900692 C0.144322918,3.83517184 0.146541597,3.83139727 0.148865745,3.82768774 C0.187467768,3.76607585 0.225678607,3.70454144 0.263498264,3.6430845 Z M12.7283206,4.11975592 L11.2322483,4.98220486 L11.2322483,4.98220486 L10.810952,4.24493634 L12.3022421,3.38524424 C12.4107448,3.3228297 12.5492287,3.35760183 12.6152776,3.4639312 C12.650081,3.51995958 12.6855989,3.57967735 12.7218316,3.6430845 C12.75687,3.70002184 12.7887519,3.75562847 12.8174775,3.80990437 C12.8761097,3.92033537 12.8366415,4.0573116 12.7283206,4.11975592 Z" id="形状" fill="#000000" fill-rule="nonzero"></path>
                            </g>
                        </g>
                        <rect id="矩形" stroke="#979797" fill="#D8D8D8" opacity="0" x="0.5" y="0.5" width="15" height="15"></rect>
                    </g>
                </g>
            </g>
        </g>
    </g>
</svg>