<?xml version="1.0" encoding="UTF-8"?>
<svg width="48px" height="46px" viewBox="0 0 48 46" version="1.1" xmlns="http://www.w3.org/2000/svg" xmlns:xlink="http://www.w3.org/1999/xlink">
    <title>编组 2</title>
    <g id="页面-1" stroke="none" stroke-width="1" fill="none" fill-rule="evenodd">
        <g id="首页" transform="translate(-859.000000, -84.000000)">
            <g id="编组-2" transform="translate(859.000000, 84.000000)">
                <rect id="矩形" fill="#F3FFFB" x="0" y="0" width="48" height="46" rx="3.55555556"></rect>
                <g id="编组" transform="translate(8.000000, 8.000000)" fill-rule="nonzero">
                    <polygon id="路径" fill="#29C47F" points="5.18183118 10.9731942 25.8809755 10.9731942 27.3780669 12.9895784 4.1188011 12.9895784"></polygon>
                    <path d="M7.13291137,0.79740374 L24.0165747,0.79740374 C24.48039,0.79740374 24.9258403,0.9786683 25.2578732,1.30251822 L27.3780669,3.37045974 L27.3780669,3.37045974 L4.1188011,3.37045974 L5.78003234,1.42183328 C6.11780107,1.02563011 6.61227266,0.79740374 7.13291137,0.79740374 Z" id="路径" fill="#29C47F"></path>
                    <path d="M4.1188011,10.972842 L27.3773204,10.972842 C28.8360007,10.9914543 30.1924357,10.2710831 30.9275553,9.08739462 C31.6626749,7.90370617 31.6626749,6.43994776 30.9275553,5.2562593 C30.1924357,4.07257085 28.8360007,3.35219966 27.3773204,3.37081188 L4.1188011,3.37081188 C2.66012088,3.35219966 1.30368586,4.07257085 0.568566273,5.2562593 C-0.166553319,6.43994776 -0.166553319,7.90370617 0.568566273,9.08739462 C1.30368586,10.2710831 2.66012088,10.9914543 4.1188011,10.972842 Z" id="路径" fill="#54D49F" opacity="0.5"></path>
                    <path d="M27.3773204,13.0246399 L4.1188011,13.0246399 C2.66012088,13.0060277 1.30368586,13.7263989 0.568566273,14.9100873 C-0.166553319,16.0937758 -0.166553319,17.5575342 0.568566273,18.7412226 C1.30368586,19.9249111 2.66012088,20.6452823 4.1188011,20.6266701 L27.3773204,20.6266701 C28.8360007,20.6452823 30.1924357,19.9249111 30.9275553,18.7412226 C31.6626749,17.5575342 31.6626749,16.0937758 30.9275553,14.9100873 C30.1924357,13.7263989 28.8360007,13.0060277 27.3773204,13.0246399 L27.3773204,13.0246399 Z" id="路径" fill="#54D49F" opacity="0.5"></path>
                    <path d="M27.3773204,22.6840777 L4.1188011,22.6840777 C2.66012088,22.6654655 1.30368586,23.3858367 0.568566273,24.5695251 C-0.166553319,25.7532136 -0.166553319,27.216972 0.568566273,28.4006605 C1.30368586,29.5843489 2.66012088,30.3047201 4.1188011,30.2861079 L27.3773204,30.2861079 C28.8360007,30.3047201 30.1924357,29.5843489 30.9275553,28.4006605 C31.6626749,27.216972 31.6626749,25.7532136 30.9275553,24.5695251 C30.1924357,23.3858367 28.8360007,22.6654655 27.3773204,22.6840777 L27.3773204,22.6840777 Z" id="路径" fill="#54D49F" opacity="0.5"></path>
                    <path d="M3.64145556,7.17217758 C3.62417475,7.84945382 4.15920676,8.41250357 4.83648301,8.42978438 C4.84691078,8.43005044 4.85734152,8.43018349 4.86777268,8.43018349 L15.6752527,8.43018349 C16.3700906,8.43018349 16.9334258,7.86701543 16.9336319,7.17217758 C16.933838,6.4776062 16.3709437,5.91437779 15.6763723,5.91417172 C15.6762479,5.91417168 15.6761236,5.91417166 15.6759992,5.91417166 L4.93196912,5.91417166 C4.23183293,5.91417166 3.65931383,6.47226918 3.64145556,7.17217758 Z" id="路径" fill="#54D49F"></path>
                    <path d="M25.4790467,7.17217758 C25.4790467,6.47740009 26.0786124,5.91417166 26.8182142,5.91417166 C27.5578161,5.91417166 28.1573818,6.47740009 28.1573818,7.17217758 C28.1573818,7.86695506 27.5578161,8.43018349 26.8182142,8.43018349 C26.0786124,8.43018349 25.4790467,7.86695506 25.4790467,7.17217758 Z" id="路径" fill="#F3FFFB"></path>
                    <path d="M15.7025261,15.5701034 L4.73986433,15.5701034 C4.14786085,15.5539882 3.61110948,15.8950291 3.40666851,16.4171887 C3.26718383,16.8021446 3.33367259,17.2266509 3.58527909,17.5575516 C3.83688558,17.8884522 4.24278878,18.0852129 4.67566789,18.0861152 L15.7017796,18.0861152 C16.0569489,18.0861152 16.3975715,17.9535757 16.6487141,17.7176538 C16.8998567,17.4817319 17.0409472,17.1617532 17.0409472,16.8281093 C17.0409472,16.1336055 16.4418364,15.5704905 15.7025261,15.5701034 Z" id="路径" fill="#54D49F"></path>
                    <path d="M25.4790467,16.8288105 C25.4790467,16.3199946 25.8053244,15.86128 26.305737,15.6665646 C26.8061496,15.4718492 27.3821495,15.5794788 27.7651487,15.939266 C28.148148,16.2990532 28.2627215,16.8401439 28.0554438,17.3102285 C27.8481661,17.7803131 27.359857,18.0868164 26.8182142,18.0868164 C26.0786124,18.0868164 25.4790467,17.523588 25.4790467,16.8288105 L25.4790467,16.8288105 Z" id="路径" fill="#F3FFFB"></path>
                    <path d="M4.73986433,25.2267363 C4.14792851,25.2108397 3.61130027,25.5518023 3.40666851,26.0738216 C3.26718383,26.4587775 3.33367259,26.8832838 3.58527909,27.2141845 C3.83688558,27.5450852 4.24278878,27.7418459 4.67566789,27.7427481 L15.7017796,27.7427481 C16.0569489,27.7427481 16.3975715,27.6102086 16.6487141,27.3742867 C16.8998567,27.1383648 17.0409472,26.8183861 17.0409472,26.4847422 C17.0409472,25.7902385 16.4418364,25.2271234 15.7025261,25.2267363 L4.73986433,25.2267363 Z" id="路径" fill="#54D49F"></path>
                    <path d="M25.4790467,26.4833397 C25.4790467,25.7885623 26.0786124,25.2253338 26.8182142,25.2253338 C27.5578161,25.2253338 28.1573818,25.7885623 28.1573818,26.4833397 C28.1573818,27.1781172 27.5578161,27.7413456 26.8182142,27.7413456 C26.0787831,27.7409588 25.4794585,27.1779569 25.4790467,26.4833397 L25.4790467,26.4833397 Z" id="路径" fill="#F3FFFB"></path>
                    <path d="M21.2741799,26.4847422 C21.2741799,27.1795197 21.8737456,27.7427481 22.6133475,27.7427481 C23.3529493,27.7427481 23.952515,27.1795197 23.952515,26.4847422 C23.952515,25.7899647 23.3529493,25.2267363 22.6133475,25.2267363 C21.8737456,25.2267363 21.2741799,25.7899647 21.2741799,26.4847422 Z" id="路径" fill="#F3FFFB"></path>
                    <polygon id="路径" fill="#29C47F" points="5.26452962 20.6270222 26.8182338 20.6270222 27.861306 22.6833765 4.43886951 22.6833765"></polygon>
                </g>
            </g>
        </g>
    </g>
</svg>