<?xml version="1.0" encoding="UTF-8"?>
<svg width="16px" height="16px" viewBox="0 0 16 16" version="1.1" xmlns="http://www.w3.org/2000/svg" xmlns:xlink="http://www.w3.org/1999/xlink">
    <title>编组 25备份</title>
    <defs>
        <filter id="filter-1">
            <feColorMatrix in="SourceGraphic" type="matrix" values="0 0 0 0 0.866667 0 0 0 0 0.866667 0 0 0 0 0.866667 0 0 0 1.000000 0"></feColorMatrix>
        </filter>
    </defs>
    <g id="页面-1" stroke="none" stroke-width="1" fill="none" fill-rule="evenodd">
        <g id="左侧菜单栏" transform="translate(-222.000000, -618.000000)">
            <g id="左侧菜单栏展开" transform="translate(206.000000, 24.000000)">
                <g id="编组-25备份" transform="translate(16.000000, 594.000000)">
                    <g filter="url(#filter-1)" id="编组-78">
                        <g transform="translate(3.000000, 1.000000)">
                            <path d="M6.62618575,0.000447767094 L10.0553774,0.000447767094 C10.2802134,0.000447767094 10.4634825,0.180800159 10.4670891,0.405607252 L10.5,2.45698444 L10.5,2.45698444 L10.5,10.0117832 C10.4995772,10.1416097 10.4994515,10.351631 10.4996228,10.641847 L10.4996135,10.641847 C10.4997478,10.8692532 10.3155074,11.0537112 10.0881012,11.0538454 C10.0881011,11.0538454 10.088101,11.0538454 10.0881009,11.0538454 C9.78840632,11.054022 9.57235491,11.0538988 9.43994662,11.0534757 L1.09946437,11.0534757 C0.966718274,11.0532041 0.750663743,11.0531249 0.451300777,11.0532381 L0.451300803,11.0533063 C0.223851801,11.0533923 0.0393982143,10.8690782 0.0393121854,10.6416292 C0.0393121738,10.6415985 0.0393121656,10.6415679 0.0393121608,10.6415372 C0.0392672408,10.3510717 0.0393001844,10.1411537 0.0394109919,10.0117832 L0,1.04214023 C0.000422753275,0.912313712 0.000548478339,0.702292444 0.000377175192,0.412076428 L0.000386458566,0.412076422 C0.000252229593,0.184670221 0.184492565,0.000212257184 0.411898766,7.80282107e-05 C0.411898889,7.80281385e-05 0.411899011,7.80280663e-05 0.411899133,7.80279942e-05 C0.711593675,-9.86027212e-05 0.92764509,2.46436454e-05 1.06005338,0.000447767094 L6.62618575,0.000447767094 Z M5.32263523,7.28450422 L5.74188463,5.48429782 C5.75879846,5.41224878 5.72722533,5.33757533 5.6634884,5.29888331 C5.59928515,5.26122169 5.51729107,5.27240726 5.46579356,5.32585269 L3.15480902,7.68567381 C3.10716108,7.73526701 3.09377549,7.80808085 3.12072371,7.87108833 C3.143897,7.932903 3.20405358,7.9734693 3.2706991,7.97222352 L4.29325863,7.97222352 L3.88082629,9.77580109 C3.8627741,9.84794079 3.89462086,9.92326141 3.95922252,9.96121561 C4.02237409,9.99835982 4.1031355,9.98714912 4.15350883,9.93424622 L6.46108483,7.5744251 C6.50899132,7.52633414 6.52248807,7.45425049 6.49517015,7.39238176 C6.47229159,7.32988095 6.41240161,7.28814821 6.34519475,7.2878754 L5.32263523,7.28450422 Z M2.02658501,1.41529198 C1.97367823,1.41529197 1.91446955,1.41529197 1.84895895,1.41529197 C1.75794714,1.41520639 1.68416748,1.48898605 1.68416748,1.57999786 L1.68416748,2.0327668 C1.68423604,2.12369348 1.75794668,2.19740412 1.84887337,2.19740412 C1.91441798,2.19740412 1.9736552,2.19740412 2.02658501,2.19740412 L4.9442882,2.19740412 C4.99719498,2.19740412 5.05640366,2.19740412 5.12191426,2.19740412 C5.21292607,2.1974897 5.28670572,2.12371005 5.28670572,2.03269824 L5.28670572,1.5799293 C5.28663716,1.48900262 5.21292652,1.41529197 5.12199984,1.41529197 C5.05645523,1.41529197 4.99721801,1.41529197 4.9442882,1.41529198 L2.02658501,1.41529198 Z M2.02658501,3.49867691 C1.97367823,3.49867691 1.91446955,3.49867691 1.84895895,3.49867691 C1.75794714,3.49859133 1.68416748,3.57237098 1.68416748,3.66338279 L1.68416748,4.11615173 C1.68423604,4.20707841 1.75794668,4.28078905 1.84887337,4.28078906 C1.91441798,4.28078906 1.9736552,4.28078905 2.02658501,4.28078905 L7.59612591,4.28078905 C7.661397,4.28078905 7.72666808,4.28078905 7.79193917,4.28078905 C7.88290371,4.28078905 7.95664505,4.20704772 7.95664505,4.11608317 L7.95664505,3.66331423 C7.95657648,3.57238755 7.88286585,3.49867691 7.79193917,3.49867691 C7.73277566,3.49867691 7.66750457,3.49867691 7.59612591,3.49867691 L2.02658501,3.49867691 Z" id="形状" fill="#949DBF" fill-rule="nonzero"></path>
                            <path d="M10.5,12.7186293 L10.5,13.6245117 C10.5,13.7154762 10.4262587,13.7892176 10.3352941,13.7892176 L0.164705882,13.7892176 C0.0737413353,13.7892176 2.886957e-16,13.7154762 0,13.6245117 L0,12.7186293 C1.66156315e-17,12.6276648 0.0737413353,12.5539234 0.164705882,12.5539234 L10.3352941,12.5539234 C10.4262587,12.5539234 10.5,12.6276648 10.5,12.7186293 Z" id="路径-5" fill="#979797" fill-rule="nonzero"></path>
                        </g>
                    </g>
                    <rect id="矩形" stroke="#979797" fill="#DDDDDD" opacity="0" x="0.5" y="0.5" width="15" height="15"></rect>
                </g>
            </g>
        </g>
    </g>
</svg>