<?xml version="1.0" encoding="UTF-8"?>
<svg width="48px" height="46px" viewBox="0 0 48 46" version="1.1" xmlns="http://www.w3.org/2000/svg" xmlns:xlink="http://www.w3.org/1999/xlink">
    <title>编组 3</title>
    <defs>
        <linearGradient x1="34.3484513%" y1="39.7187552%" x2="50%" y2="60.2812448%" id="linearGradient-1">
            <stop stop-color="#F88A68" offset="0%"></stop>
            <stop stop-color="#F0544F" offset="100%"></stop>
        </linearGradient>
    </defs>
    <g id="页面-1" stroke="none" stroke-width="1" fill="none" fill-rule="evenodd">
        <g id="首页" transform="translate(-650.000000, -84.000000)">
            <g id="编组-3" transform="translate(650.000000, 84.000000)">
                <rect id="矩形" fill="#FFF5F3" x="0" y="0" width="48" height="46" rx="3.55555556"></rect>
                <g id="编组" transform="translate(9.000000, 7.000000)" fill-rule="nonzero">
                    <path d="M12.2988143,15.697695 L17.5284242,15.697695 L17.5284242,20.9175532 L12.2988143,20.9175532 L12.2988143,15.697695 Z M21.6578568,9.42819149 C22.1406164,9.42819149 22.5319703,9.79652462 22.5319703,10.2508865 L22.5319703,10.875 C22.5319703,11.595712 21.911202,12.1799645 21.1454455,12.1799645 L20.7837434,12.1799645 L20.7837434,10.2508865 C20.7837434,10.0326942 20.8758372,9.82343854 21.0397653,9.66915329 C21.2036933,9.51486804 21.4260275,9.42819149 21.6578568,9.42819149 L21.6578568,9.42819149 Z M9.0284242,12.1799646 L8.65165114,12.1799646 C7.89751296,12.1801323 7.28152061,11.6129782 7.26512633,10.9033688 L7.26512633,10.2792553 C7.26512633,9.82489339 7.65648027,9.45656027 8.13923982,9.45656027 C8.62199935,9.45656027 9.01335327,9.8248934 9.01335327,10.2792553 L9.01335327,12.1799646 L9.0284242,12.1799646 L9.0284242,12.1799646 Z" id="形状" fill="#FFCDAB"></path>
                    <path d="M14.9060838,2.23670213 L14.9060838,2.23670213 C18.8245235,2.23670213 20.7837434,4.08067376 20.7837434,7.76861702 L20.7837434,9.42819149 C20.7837434,13.1161348 18.8245235,14.9601064 14.9060838,14.9601064 L14.9060838,14.9601064 C10.9876441,14.9601064 9.0284242,13.1161348 9.0284242,9.42819149 L9.0284242,7.76861702 C9.0284242,4.08067376 10.9876441,2.23670213 14.9060838,2.23670213 Z" id="路径" fill="#FFE1CA"></path>
                    <path d="M14.9060838,16.6196809 C12.4729042,16.5869128 10.2855258,15.2162897 9.31477173,13.1161347 C8.70776701,11.9218994 8.40830336,10.6098477 8.44065824,9.28634751 L8.44065824,8.875 C8.44065824,5.51428854 11.3353279,2.78989362 14.9060838,2.78989362 C18.4768397,2.78989362 21.3715093,5.51428854 21.3715093,8.875 L21.3715093,9.28634751 C21.39443,10.5907621 21.0952,11.8823671 20.4973958,13.0593972 C19.5448477,15.1817529 17.3535995,16.5770364 14.9060838,16.6196809 Z" id="路径" fill="#FFE1CA"></path>
                    <path d="M17.558566,6.12322696 C17.4681405,5.79698584 17.3475731,5.55585106 17.1516511,5.55585106 C16.9557291,5.55585106 16.0514738,5.65514186 14.8458001,5.7969858 C13.6401263,5.65514182 12.7057291,5.55585106 12.5248781,5.55585106 C12.3440271,5.55585106 12.2083888,5.7969858 12.1330341,6.12322696 C9.96282135,6.39273052 7.91317595,3.8962766 7.91317599,6.66223404 C7.8980338,8.25163116 8.11094962,9.83567715 8.54615471,11.3714539 L9.07363697,8.32180851 L11.8918994,7.76861702 L17.6640625,7.76861702 L20.5576795,8.32180851 L21.1605164,11.3714539 C21.5349377,9.82685094 21.7170145,8.24647182 21.7030696,6.66223404 C21.7633533,3.8962766 19.7287788,6.44946809 17.558566,6.12322696 Z" id="路径" fill="#5A493C"></path>
                    <path d="M22.4415448,7.74024824 C22.4415448,6.77570924 19.0958001,7.11613477 14.9060838,7.11613474 C10.7163675,7.11613471 7.3706228,6.77570921 7.3706228,7.74024824 C7.3706228,8.70478727 10.7163675,9.45656027 14.9060838,9.45656027 C19.0958001,9.45656027 22.4415448,8.69060283 22.4415448,7.74024824 Z" id="路径" fill="#FF837D"></path>
                    <path d="M21.9592753,6.76152483 L21.9592753,7.39982271 C21.9572089,7.56913451 21.8329094,7.71536925 21.6578568,7.75443261 C19.4344065,8.16207975 17.1707204,8.34279419 14.9060838,8.29343973 C12.6256134,8.34752793 10.3458501,8.16198308 8.10909795,7.74024824 C7.93462505,7.6913736 7.81311812,7.54270629 7.80767952,7.37145389 L7.80767952,6.83244681 C7.8358888,4.27606538 9.50326734,1.98937481 12.0275377,1.04521277 L12.2988143,1.04521277 C12.6612695,0.920835542 13.0343843,0.825925563 13.4140625,0.761524834 C14.8132395,0.505759304 16.260797,0.628720217 17.5887079,1.11613474 L17.754488,1.18705675 L17.8750554,1.18705675 C18.6023972,1.49065163 19.2699158,1.90788822 19.8493462,2.4210993 C21.1616456,3.52999623 21.9257963,5.10196321 21.9592753,6.76152483 L21.9592753,6.76152483 Z" id="路径" fill="#EF5237"></path>
                    <path d="M17.7997008,1.08776596 C17.4194362,2.16262672 17.2260496,3.28822047 17.2270058,4.4210993 C17.217725,5.37922344 17.3495945,6.33393429 17.6188497,7.25797872 C17.6188497,7.42819149 17.7243462,7.58421985 17.7846299,7.75443261 L12.2083888,7.75443261 C12.2675755,7.60589466 12.3178904,7.45435786 12.3590979,7.30053191 C12.6290139,6.37630529 12.7658746,5.42215676 12.7660128,4.46365249 C12.7720085,3.30490827 12.5681445,2.15367642 12.163176,1.05939717 C12.1290401,0.962654012 12.0887789,0.867921774 12.0426086,0.775709209 C12.0488309,0.723864612 12.0488309,0.671525448 12.0426086,0.619680851 L12.1782469,0.619680851 C12.5668371,0.424278185 12.9759488,0.267407468 13.3989916,0.151595745 C14.8513103,-0.111202431 16.3533824,0.0267209797 17.7243462,0.548758876 L17.8750554,0.548758876 L17.7997008,1.08776596 Z" id="路径" fill="#EF5237"></path>
                    <path d="M17.7997008,1.08776596 C17.4194362,2.16262672 17.2260496,3.28822047 17.2270058,4.4210993 C17.217725,5.37922344 17.3495945,6.33393429 17.6188497,7.25797872 C17.0052341,6.33613402 16.6861194,5.26770006 16.6995235,4.17996453 C16.690764,3.08193927 17.0149063,2.00433534 17.6339207,1.07358155 C17.7206092,0.932391014 17.8215483,0.799388963 17.9353391,0.676418451 L17.7997008,1.08776596 Z M12.3590979,7.25797872 C12.6290139,6.3337521 12.7658746,5.37960356 12.7660128,4.4210993 C12.7720085,3.26235508 12.5681445,2.11112323 12.163176,1.01684398 C12.1274744,0.934545107 12.0872305,0.854057234 12.0426086,0.775709209 L12.0426086,0.548758876 C12.1564478,0.675071486 12.2621341,0.807697367 12.3590979,0.945921975 C13.0276487,1.88686219 13.3891256,2.99132351 13.3989916,4.12322696 C13.3821023,5.24085833 13.0208529,6.32984211 12.3590979,7.25797872 Z" id="形状" fill="#EF5237"></path>
                    <polygon id="路径" fill="#EA7D63" points="14.5443816 11.768617 14.9512965 10.1657802 14.2128214 11.7828014 14.1374668 11.9246454 14.288176 11.9671986 15.1472185 12.1799645 14.5443816 11.768617"></polygon>
                    <path d="M16.8502327,12.8891844 C16.8502327,13.3543707 16.6528792,13.8003003 16.3019722,14.1279022 C15.9510652,14.4555042 15.4756824,14.6376473 14.9814384,14.6338653 C14.6223962,14.6357372 14.2708875,14.5369814 13.9716866,14.3501773 C13.4514567,14.0422044 13.129117,13.5099613 13.1126441,12.9317376 L16.8502327,12.8891844 Z" id="路径" fill="#FFF9F5"></path>
                    <path d="M29.8112256,31.981383 C29.5431342,28.9914619 28.7856713,26.0584986 27.5656582,23.2863475 L27.3245235,22.733156 C26.7690984,21.4907691 25.8490101,20.423073 24.6720412,19.6551419 C23.476048,18.8775835 22.0564843,18.4619204 20.6028923,18.4636471 L17.4832114,18.4636471 L14.9060838,20.3076241 L12.2385306,18.4636471 L9.2243462,18.4636471 C6.27719516,18.4769928 3.6268649,20.1548595 2.50271497,22.7189716 L2.26158024,23.2721631 C1.48130652,25.0324323 0.890584205,26.8619192 0.49828237,28.733156 C0.270850406,29.80674 0.10483128,30.8910432 0.000941944398,31.981383 L29.8112256,31.981383 Z" id="路径" fill="url(#linearGradient-1)"></path>
                    <path d="M12.9468639,22.4494681 L10.9876441,18.4636525 L14.9060838,20.3076241 L12.9468639,22.4494681 L12.9468639,22.4494681 Z M16.8653036,22.4494681 L18.8245235,18.4636525 L14.9060838,20.3076241 L16.8653036,22.4494681 Z" id="形状" fill="#EF5237"></path>
                    <polygon id="路径" fill="#FFF5E6" opacity="0.48" points="16.8653036 24.9175532 22.0949136 24.9175532 22.0949136 25.5274823 16.8653036 25.5274823"></polygon>
                    <path d="M14.9060838,20.3076241 L12.9468639,21.839539 L10.9876441,18.4636525 L12.2988143,17.4140071 L14.9060838,20.3076241 Z M14.9060838,20.3076241 L16.8653036,21.839539 L18.8245235,18.4636525 L17.5133533,17.4140071 L14.9060838,20.3076241 Z M5.75803412,24.6054964 L24.0390625,24.6054964 L24.0390625,25.839539 L5.75803412,25.839539 L5.75803412,24.6054964 Z" id="形状" opacity="0.296130952"></path>
                    <path d="M7.06920433,27.0593972 L11.5904809,27.0593972 L11.5904809,29.7260638 C11.5904809,29.9969232 11.4761575,30.2566889 11.2726606,30.4482154 C11.0691637,30.639742 10.7931627,30.7473404 10.5053745,30.7473404 L8.15431072,30.7473404 C7.55502301,30.7473404 7.06920433,30.2900993 7.06920433,29.7260638 L7.06920433,27.0593972 L7.06920433,27.0593972 Z" id="路径" fill="#FACCC5"></path>
                    <path d="M14.5745235,21.839539 C14.5745235,22.0118832 14.7229681,22.1515957 14.9060838,22.1515957 C15.0891995,22.1515957 15.2376441,22.0118832 15.2376441,21.839539 C15.2376441,21.6671948 15.0891995,21.5274822 14.9060838,21.5274822 C14.7229681,21.5274822 14.5745235,21.6671948 14.5745235,21.839539 L14.5745235,21.839539 Z" id="路径" fill="#EF5237"></path>
                    <path d="M14.5745235,23.0735815 C14.5745235,23.2459257 14.7229681,23.3856383 14.9060838,23.3856383 C15.0891995,23.3856383 15.2376441,23.2459257 15.2376441,23.0735815 C15.2376441,22.9012374 15.0891995,22.7615248 14.9060838,22.7615248 C14.7229681,22.7615248 14.5745235,22.9012374 14.5745235,23.0735815 L14.5745235,23.0735815 Z" id="路径" fill="#EF5237"></path>
                </g>
            </g>
        </g>
    </g>
</svg>