<?xml version="1.0" encoding="UTF-8"?>
<svg width="24px" height="24px" viewBox="0 0 24 24" version="1.1" xmlns="http://www.w3.org/2000/svg" xmlns:xlink="http://www.w3.org/1999/xlink">
    <title>头像图标</title>
    <defs>
        <filter id="filter-1">
            <feColorMatrix in="SourceGraphic" type="matrix" values="0 0 0 0 0.000000 0 0 0 0 0.000000 0 0 0 0 0.000000 0 0 0 0.650000 0"></feColorMatrix>
        </filter>
    </defs>
    <g id="页面-1" stroke="none" stroke-width="1" fill="none" fill-rule="evenodd">
        <g id="企业详情-风险分布图" transform="translate(-1271.000000, -12.000000)">
            <g id="导航/Menu/登录用户信息/S备份" transform="translate(1255.000000, 0.000000)">
                <g id="头像图标" transform="translate(16.000000, 12.000000)">
                    <circle id="椭圆形" fill="#E5E5E5" cx="12" cy="12" r="12"></circle>
                    <g id="icon-颜色" transform="translate(4.000000, 4.000000)" filter="url(#filter-1)">
                        <g>
                            <rect id="矩形备份-26" fill="#D8D8D8" opacity="0" x="0" y="0" width="16" height="16"></rect>
                            <path d="M8,1 C10.0710678,1 11.75,2.67893219 11.75,4.75 C11.75,5.82877813 11.2944786,6.80116355 10.56529,7.48530203 C13.1621879,8.50829013 15,11.0395231 15,14 C15,14.2319607 15,14.4059313 15,14.5219116 C15,14.5979411 15,14.6739705 15,14.75 C15,14.8880712 14.8880712,15 14.75,15 L13.75,15 C13.6119288,15 13.5,14.8880712 13.5,14.75 C13.5,14.6764323 13.5,14.6028646 13.5,14.5292969 C13.5,14.4116753 13.5,14.2352431 13.5,14 C13.5,10.9928095 11.0865686,8.54930619 8.09095256,8.50073684 L8,8.5 C4.99280954,8.5 2.54930619,10.9134314 2.50073684,13.9090474 L2.5,14 L2.5,14.541687 L2.5,14.75 C2.5,14.8880712 2.38807119,15 2.25,15 L1.25,15 C1.11192881,15 1,14.8880712 1,14.75 C1,14.668396 1,14.586792 1,14.505188 C1,14.392924 1,14.224528 1,14 C1,11.0395231 2.83781212,8.50829013 5.43479159,7.484946 C4.7055214,6.80116355 4.25,5.82877813 4.25,4.75 C4.25,2.67893219 5.92893219,1 8,1 Z M8,2.5 C6.75735931,2.5 5.75,3.50735931 5.75,4.75 C5.75,5.99264069 6.75735931,7 8,7 C9.24264069,7 10.25,5.99264069 10.25,4.75 C10.25,3.50735931 9.24264069,2.5 8,2.5 Z" id="形状" fill="#000000" fill-rule="nonzero"></path>
                        </g>
                    </g>
                </g>
            </g>
        </g>
    </g>
</svg>