<?xml version="1.0" encoding="UTF-8"?>
<svg width="59px" height="17px" viewBox="0 0 59 17" version="1.1" xmlns="http://www.w3.org/2000/svg" xmlns:xlink="http://www.w3.org/1999/xlink">
    <title>编组 41</title>
    <defs>
        <filter id="filter-1">
            <feColorMatrix in="SourceGraphic" type="matrix" values="0 0 0 0 0.941176 0 0 0 0 0.329412 0 0 0 0 0.309804 0 0 0 1.000000 0"></feColorMatrix>
        </filter>
        <linearGradient x1="33.4939946%" y1="18.1597314%" x2="77.4117288%" y2="100%" id="linearGradient-2">
            <stop stop-color="#B6B7C6" offset="0%"></stop>
            <stop stop-color="#9B9DAD" offset="49.0576553%"></stop>
            <stop stop-color="#7F8194" offset="100%"></stop>
        </linearGradient>
    </defs>
    <g id="页面-1" stroke="none" stroke-width="1" fill="none" fill-rule="evenodd">
        <g id="首页" transform="translate(-240.000000, -606.000000)">
            <g id="编组-41" transform="translate(240.000000, 606.000000)">
                <g id="编组-38" transform="translate(16.000000, 1.000000)">
                    <polygon id="矩形" fill-opacity="0.2" fill="#F8A89E" points="0 1 38.8387097 1 43 8 38.8387097 15 0 15"></polygon>
                    <path d="M6.921875,13 L6.921875,4.37988281 L9.99804688,4.37988281 L9.99804688,3.046875 L2.23242188,3.046875 L2.23242188,4.37988281 L5.26074219,4.37988281 L5.26074219,13 L6.921875,13 Z M14.7695312,13.1435547 C15.9908854,13.1435547 16.9832357,12.7436523 17.746582,11.9438477 C18.5099284,11.144043 18.8916016,10.1357422 18.8916016,8.91894531 L18.8916016,8.91894531 L18.8916016,7.12792969 C18.8916016,5.9156901 18.5087891,4.90852865 17.7431641,4.10644531 C16.9775391,3.30436198 15.9863281,2.90332031 14.7695312,2.90332031 C13.5755208,2.90332031 12.605957,3.30436198 11.8608398,4.10644531 C11.1157227,4.90852865 10.7431641,5.9156901 10.7431641,7.12792969 L10.7431641,7.12792969 L10.7431641,8.91894531 C10.7431641,10.1357422 11.116862,11.144043 11.8642578,11.9438477 C12.6116536,12.7436523 13.5800781,13.1435547 14.7695312,13.1435547 Z M14.7695312,11.7832031 C14.0403646,11.7832031 13.4638672,11.5154622 13.0400391,10.9799805 C12.6162109,10.4444987 12.4042969,9.75748698 12.4042969,8.91894531 L12.4042969,8.91894531 L12.4042969,7.11425781 C12.4042969,6.28483073 12.6150716,5.60351562 13.0366211,5.0703125 C13.4581706,4.53710938 14.0358073,4.27050781 14.7695312,4.27050781 C15.5260417,4.27050781 16.1253255,4.53710938 16.5673828,5.0703125 C17.0094401,5.60351562 17.2304688,6.28483073 17.2304688,7.11425781 L17.2304688,7.11425781 L17.2304688,8.91894531 C17.2304688,9.76204427 17.0105794,10.4501953 16.5708008,10.9833984 C16.1310221,11.5166016 15.530599,11.7832031 14.7695312,11.7832031 Z M22.3164062,13 L22.3164062,9.2265625 L24.4697266,9.2265625 C25.5680339,9.2265625 26.4282227,8.94514974 27.050293,8.38232422 C27.6723633,7.8194987 27.9833984,7.07096354 27.9833984,6.13671875 C27.9833984,5.21158854 27.6723633,4.46533203 27.050293,3.89794922 C26.4282227,3.33056641 25.5680339,3.046875 24.4697266,3.046875 L24.4697266,3.046875 L20.6552734,3.046875 L20.6552734,13 L22.3164062,13 Z M24.4697266,7.89355469 L22.3164062,7.89355469 L22.3164062,4.37988281 L24.4697266,4.37988281 C25.0849609,4.37988281 25.547526,4.5485026 25.8574219,4.88574219 C26.1673177,5.22298177 26.3222656,5.64453125 26.3222656,6.15039062 C26.3222656,6.65625 26.1673177,7.07324219 25.8574219,7.40136719 C25.547526,7.72949219 25.0849609,7.89355469 24.4697266,7.89355469 L24.4697266,7.89355469 Z M33.6572266,13 L33.6572266,2.90332031 L29.8837891,3.25878906 L29.8837891,4.578125 L31.9960938,4.578125 L31.9960938,13 L33.6572266,13 Z" id="TOP1" fill="#F0544F" fill-rule="nonzero"></path>
                </g>
                <g filter="url(#filter-1)" id="编组">
                    <g>
                        <path d="M1.6065627,13.6112912 L1.6065627,5.28207305 C1.6065627,2.36644195 4.02084349,0 7.00022336,0 C9.98041274,0 12.393884,2.36645752 12.393884,5.28288255 L12.393884,13.6112912 L1.6065627,13.6112912 Z M7.48563258,2.39116309 L3.9977258,7.85655864 L6.78741607,7.85655864 L6.08919956,11.9558155 L9.57710635,6.49041992 L6.78741607,6.49041992 L7.48563258,2.39116309 Z M13.5623782,14.6050235 L13.5623782,15.7991285 C13.5623782,15.9095855 13.4728351,15.9991285 13.3623782,15.9991285 C13.3620883,15.9991285 13.3617985,15.9991279 13.3615086,15.9991267 L0.211568851,15.9419531 C0.101452373,15.9414743 0.012438407,15.8520725 0.012438407,15.741955 L0.012438407,14.5478414 C0.012438407,14.4373844 0.101981457,14.3478414 0.212438407,14.3478414 C0.212728303,14.3478414 0.213018199,14.347842 0.213308092,14.3478433 L13.3632479,14.4050254 C13.4733643,14.4055042 13.5623782,14.494906 13.5623782,14.6050235 Z" id="形状" fill="url(#linearGradient-2)" fill-rule="nonzero"></path>
                    </g>
                </g>
            </g>
        </g>
    </g>
</svg>