<?xml version="1.0" encoding="UTF-8"?>
<svg width="16px" height="16px" viewBox="0 0 16 16" version="1.1" xmlns="http://www.w3.org/2000/svg" xmlns:xlink="http://www.w3.org/1999/xlink">
    <title>编组 28备份</title>
    <defs>
        <filter id="filter-1">
            <feColorMatrix in="SourceGraphic" type="matrix" values="0 0 0 0 0.866667 0 0 0 0 0.866667 0 0 0 0 0.866667 0 0 0 1.000000 0"></feColorMatrix>
        </filter>
    </defs>
    <g id="页面-1" stroke="none" stroke-width="1" fill="none" fill-rule="evenodd">
        <g id="左侧菜单栏" transform="translate(-222.000000, -418.000000)">
            <g id="左侧菜单栏展开" transform="translate(206.000000, 24.000000)">
                <g id="编组" transform="translate(16.000000, 28.000000)">
                    <g id="编组-28备份" transform="translate(0.000000, 366.000000)">
                        <rect id="矩形" stroke="#979797" fill="#D8D8D8" opacity="0" x="0.5" y="0.5" width="15" height="15"></rect>
                        <g filter="url(#filter-1)" id="货车-(2)">
                            <g transform="translate(8.000000, 8.500000) scale(-1, 1) translate(-8.000000, -8.500000) translate(0.000000, 2.000000)">
                                <path d="M6.73279588,10.8634475 C6.73279588,11.5499501 6.17719415,12.1055519 5.49069149,12.1055519 C4.80418883,12.1055519 4.2485871,11.5499501 4.2485871,10.8634475 C4.2485871,10.1769448 4.80418883,9.62134309 5.49069149,9.62134309 C6.17719415,9.62279754 6.73279588,10.1783993 6.73279588,10.8634475 Z M14.2494182,10.8634475 C14.2494182,11.5499501 13.6938165,12.1055519 13.0073138,12.1055519 C12.3208112,12.1055519 11.7652094,11.5499501 11.7652094,10.8634475 C11.7652094,10.1769448 12.3208112,9.62134309 13.0073138,9.62134309 C13.6938165,9.62279754 14.2494182,10.1783993 14.2494182,10.8634475 Z M15.5497008,6.28918717 L14.3497756,4.6892869 C14.1039727,4.39403258 13.9381649,4.15259309 13.5440076,4.15259309 L11.1296127,4.15259309 C10.8343584,4.15259309 10.5929189,4.39403258 10.5929189,4.6892869 L10.5929189,10.0576795 C10.5929189,10.3529338 10.8329039,10.5914644 11.1267038,10.5943733 C11.2590592,9.66934009 12.0488281,8.95374834 13.0087683,8.95374834 C13.9701629,8.95374834 14.7599318,9.66934009 14.8908328,10.5943733 L15.4246177,10.5943733 C15.719872,10.5943733 15.9613115,10.3529338 15.9613115,10.0576795 L15.9613115,7.37421044 C15.9613115,6.86515126 15.5497008,6.28918717 15.5497008,6.28918717 L15.5497008,6.28918717 Z M12.2030003,7.37421044 L12.2030003,5.22598072 L13.516373,5.22598072 C13.6036403,5.22598072 13.7229056,5.35251828 13.7229056,5.35251828 L14.853017,6.91751164 C14.9533743,7.06441157 15.061004,7.23894614 15.061004,7.37421044 L12.2030003,7.37421044 L12.2030003,7.37421044 Z M9.5180768,2.36265307 L2.53814827,2.36265307 C2.24289395,2.36265307 2.00145445,2.60409257 2.00145445,2.89934689 L2.00145445,10.0576795 C2.00145445,10.3529338 2.24289395,10.5943733 2.53814827,10.5943733 L3.60862699,10.5943733 C3.73952793,9.66934009 4.52929687,8.95374834 5.49069149,8.95374834 C6.4520861,8.95374834 7.24185505,9.66934009 7.37275598,10.5943733 L9.51662234,10.5943733 C9.81187666,10.5943733 10.0533162,10.3529338 10.0533162,10.0576795 L10.0533162,2.90080134 C10.0547706,2.60409257 9.81333112,2.36265307 9.5180768,2.36265307 Z" id="形状" fill="#000000" fill-rule="nonzero"></path>
                                <path d="M5.90407647,8.59346326 L5.37275598,8.59437334 C5.35057028,8.43759435 5.30945855,8.28683159 5.25179291,8.14454922 C5.50157422,8.24772845 5.72317359,8.40183058 5.90407647,8.59346326 Z M7.55566359,0.362657806 C7.83175591,0.363859464 8.05459882,0.588650646 8.05348306,0.864743338 C8.05343105,0.876693871 8.05337541,0.888713205 8.05331616,0.900801342 L8.05245445,1.49965307 L1.53518541,1.50141351 C1.24183575,1.50141351 1.00195376,1.73605656 1.00195376,2.02299957 L1.00145445,8.59365307 L0.501454455,8.59437334 C0.255994566,8.59437334 0.0518460844,8.41749818 0.00951012418,8.18424897 L0.00145445477,8.09437334 L0.00145445477,0.862653071 C0.00145445477,0.586510696 0.22531208,0.362653071 0.501454455,0.362653071 L0.501454455,0.362653071 Z" id="形状结合" fill="#000000" fill-rule="nonzero"></path>
                            </g>
                        </g>
                    </g>
                </g>
            </g>
        </g>
    </g>
</svg>