<?xml version="1.0" encoding="UTF-8"?>
<svg width="12px" height="12px" viewBox="0 0 12 12" version="1.1" xmlns="http://www.w3.org/2000/svg" xmlns:xlink="http://www.w3.org/1999/xlink">
    <title>编组 22</title>
    <g id="页面-1" stroke="none" stroke-width="1" fill="none" fill-rule="evenodd">
        <g id="首页" transform="translate(-1267.000000, -121.000000)">
            <g id="编组-24" transform="translate(1062.000000, 116.000000)">
                <g id="编组-22" transform="translate(205.000000, 5.000000)">
                    <path d="M7.35497238,7.96132597 C5.92541436,7.87845304 4.55801105,8.11671271 3.24240331,8.6968232 C1.9371547,9.2769337 0.818370166,10.2196133 -3.99680289e-14,11.4005525 C0.020718232,11.2969613 0.0310773481,11.1933702 0.0517955801,11.0794199 C0.0725138122,10.9758287 0.0932320442,10.8722376 0.113950276,10.7582873 C0.393646409,9.46339779 0.828729282,8.23066298 1.52279006,7.11187845 C2.23756906,5.96201657 3.14917127,5.04005525 4.34046961,4.44958564 C5.1070442,4.07665746 5.93577348,3.85911602 6.78522099,3.80732044 C6.96132597,3.79696133 7.14779006,3.78660221 7.33425414,3.77624309 L7.33425414,1.03107735 L7.36533149,1 L11.9958564,5.85842541 L7.33425414,10.6961326 L7.33425414,7.96132597 L7.35497238,7.96132597 Z" id="路径" fill-opacity="0.45" fill="#000000" fill-rule="nonzero"></path>
                    <rect id="矩形" stroke="#979797" fill="#D8D8D8" opacity="0" x="0.5" y="0.5" width="11" height="11"></rect>
                </g>
            </g>
        </g>
    </g>
</svg>