<?xml version="1.0" encoding="UTF-8"?>
<svg width="16px" height="16px" viewBox="0 0 16 16" version="1.1" xmlns="http://www.w3.org/2000/svg" xmlns:xlink="http://www.w3.org/1999/xlink">
    <title>编组 4备份</title>
    <g id="页面-1" stroke="none" stroke-width="1" fill="none" fill-rule="evenodd">
        <g id="左侧菜单栏" transform="translate(-222.000000, -92.000000)">
            <g id="左侧菜单栏展开" transform="translate(206.000000, 24.000000)">
                <g id="编组" transform="translate(16.000000, 28.000000)">
                    <g id="编组-4备份" transform="translate(0.000000, 40.000000)">
                        <rect id="矩形" stroke="#979797" fill="#D8D8D8" opacity="0" x="0.5" y="0.5" width="15" height="15"></rect>
                        <path d="M14.0292925,5.81496323 L13.94769,5.81496323 L13.94769,4.56960434 C13.94769,4.04427843 13.511905,3.61586782 12.9765625,3.61586782 L7.6893925,3.61586782 L7.6893925,2.95332403 C7.6893925,2.42799813 7.2536075,2 6.718685,2 L1.9711275,2 C1.435785,2 1,2.42798095 1,2.95332403 L1,13.0471056 C1,13.5728612 1.435785,14 1.9711275,14 L12.9765625,14 C13.511905,14 13.94769,13.572844 13.9459925,13.0647219 L15,6.76828727 C15,6.24294418 14.564215,5.81496323 14.0292925,5.81496323 Z M1.86261,3.37752393 C1.86261,2.96590463 1.9835175,2.84673268 2.4026425,2.84673268 L6.28717,2.84673268 C6.7050175,2.84673268 6.8263625,2.96590463 6.8263625,3.37752393 L6.8263625,4.35728096 L6.8532775,4.46301298 L12.545905,4.46301298 C12.9641725,4.46301298 13.0850975,4.58218493 13.0850975,4.9925496 L13.0850975,5.81496323 L3.0225975,5.81496323 C2.4876925,5.81496323 2.05189,6.24294418 2.0527475,6.75192562 L1.86261,7.96622831 L1.86261,3.37752393 L1.86261,3.37752393 Z" id="形状" fill="#FFFFFF" fill-rule="nonzero"></path>
                        <path d="M13.08508,12.6224761 C13.08508,13.0340954 12.9641725,13.1528377 12.5450475,13.1528377 L2.4026425,13.1528377 C1.9835175,13.1528377 1.86261,13.0340954 1.860895,12.6421891 L2.9149025,7.19207468 C2.9149025,6.78086787 3.0362475,6.6617131 3.454095,6.6617131 L13.59734,6.6617131 C14.0156075,6.6617131 14.1369525,6.78088505 14.1386675,7.17236164 L13.08508,12.6224761 Z" id="路径" fill="#FFFFFF" fill-rule="nonzero"></path>
                    </g>
                </g>
            </g>
        </g>
    </g>
</svg>