<?xml version="1.0" encoding="UTF-8"?>
<svg width="16px" height="16px" viewBox="0 0 16 16" version="1.1" xmlns="http://www.w3.org/2000/svg" xmlns:xlink="http://www.w3.org/1999/xlink">
    <title>编组 15备份</title>
    <defs>
        <filter id="filter-1">
            <feColorMatrix in="SourceGraphic" type="matrix" values="0 0 0 0 0.866667 0 0 0 0 0.866667 0 0 0 0 0.866667 0 0 0 1.000000 0"></feColorMatrix>
        </filter>
    </defs>
    <g id="页面-1" stroke="none" stroke-width="1" fill="none" fill-rule="evenodd">
        <g id="左侧菜单栏" transform="translate(-222.000000, -538.000000)">
            <g id="左侧菜单栏展开" transform="translate(206.000000, 24.000000)">
                <g id="编组" transform="translate(16.000000, 28.000000)">
                    <g id="编组-15备份" transform="translate(0.000000, 486.000000)">
                        <rect id="矩形" stroke="#979797" fill="#D8D8D8" opacity="0" x="0.5" y="0.5" width="15" height="15"></rect>
                        <g filter="url(#filter-1)" id="复制-(1)">
                            <g transform="translate(2.000000, 1.000000)">
                                <path d="M1.93562863,1.29219487 C1.94428488,1.43521952 1.948613,1.58799493 1.948613,1.75052109 C1.94909753,1.94917666 2.11027583,2.10996232 2.30893199,2.10996232 L9.40044345,2.10996232 L9.40044345,2.10996232 L9.96813948,2.10996232 C10.2442819,2.10996232 10.4681395,2.33381995 10.4681395,2.60996232 L10.4681395,3.02733622 L10.4681395,3.02733622 L10.4518474,11.1376739 C10.4513667,11.3769968 10.6449865,11.5713961 10.8843094,11.5718769 C10.8845995,11.5718775 10.8848897,11.5718778 10.8851799,11.5718778 L10.8893181,11.5718778 L10.8893181,11.5718778 C11.0276641,11.5718778 11.1550231,11.5682689 11.2713954,11.5610512 C11.4998817,11.5469114 11.6779352,11.3574724 11.6779352,11.128549 L11.6779352,1.94835789 L11.6779352,1.94835789 C11.6779352,1.82517107 11.6712527,1.61357978 11.6578878,1.31358403 L11.6579189,1.31358264 C11.645836,1.04236368 11.4195447,0.830335899 11.148114,0.835911514 C10.9167124,0.840664867 10.7522146,0.843041543 10.6546206,0.843041543 L2.3686972,0.832684139 C2.12938225,0.832399969 1.93513666,1.02616055 1.93483752,1.26547549 C1.93482637,1.27438796 1.9350902,1.28329866 1.93562863,1.29219487 Z" id="路径" fill="#000000" fill-rule="nonzero"></path>
                                <path d="M0.879425578,3.02733622 C0.7538636,3.02733622 0.628301622,3.02733622 0.502739644,3.02733622 C0.226597269,3.02733622 0.00273964355,3.25119385 0.00273964355,3.52733622 L0.00273964355,13.4758911 C0.00273964355,13.7520335 0.226597269,13.9758911 0.502739644,13.9758911 C0.628301622,13.9758911 0.7538636,13.9758911 0.879425578,13.9758911 L8.76959899,13.9758911 C8.89516097,13.9758911 9.02072294,13.9758911 9.14628492,13.9758911 C9.4224273,13.9758911 9.64628492,13.7520335 9.64628492,13.4758911 L9.64628492,3.94347303 L9.64628492,3.94347303 C9.64628492,3.80476076 9.64628492,3.66604849 9.64628492,3.52733622 C9.64628492,3.25119385 9.4224273,3.02733622 9.14628492,3.02733622 L0.879425578,3.02733622 L0.879425578,3.02733622 Z M2.63279745,10.4691474 L7.01622712,10.4691474 C7.08552424,10.4691474 7.16483775,10.4691474 7.25416764,10.4691474 C7.36439378,10.4692181 7.45382554,10.5584304 7.45409633,10.6686562 C7.45441217,10.7972158 7.45457009,10.8768272 7.45457009,10.9074904 C7.45457009,10.9569104 7.45442943,11.0365288 7.45414813,11.1463455 C7.45386584,11.2566022 7.36440579,11.3458333 7.25414879,11.3458333 C7.15037825,11.3458333 7.07107103,11.3458333 7.01622712,11.3458333 L2.63279745,11.3458333 C2.56168812,11.3458333 2.48230526,11.3458333 2.39464887,11.3458333 C2.28408456,11.3460277 2.19445448,11.2563976 2.19445448,11.1458333 C2.19445448,11.0145371 2.19445448,10.9350894 2.19445448,10.9074904 C2.19445448,10.8653748 2.19445448,10.785918 2.19445448,10.6691199 C2.19448203,10.5586781 2.28401274,10.4691474 2.39445448,10.4691474 C2.49222606,10.4691474 2.57167371,10.4691474 2.63279745,10.4691474 Z M2.63279745,8.27743256 L7.01622712,8.27743256 C7.05110067,8.27736836 7.12801869,8.27734716 7.24698118,8.27736897 L7.24698118,8.27736276 C7.35744155,8.277383 7.44697097,8.36694524 7.44695073,8.47740562 C7.44695063,8.47789948 7.44694871,8.47839334 7.44694497,8.47888719 C7.4463654,8.5552349 7.44857843,8.62099532 7.45358405,8.67616844 C7.46180203,8.76674879 7.46520075,8.86042239 7.46378022,8.95718922 C7.46204174,9.06641385 7.37304015,9.1541185 7.26380177,9.1541185 L7.01622712,9.1541185 L7.01622712,9.1541185 L2.63279745,9.1541185 C2.55334979,9.1541185 2.47390214,9.1541185 2.39445448,9.1541185 C2.28399753,9.1541185 2.19445448,9.06457545 2.19445448,8.9541185 C2.19445448,8.87467084 2.19445448,8.79522319 2.19445448,8.71577553 C2.19445448,8.67007825 2.19445448,8.59060192 2.19445448,8.47734655 C2.1945405,8.3669371 2.28404503,8.27743256 2.39445448,8.27743256 C2.49520477,8.27743256 2.57465243,8.27743256 2.63279745,8.27743256 Z M2.63279745,6.08571773 L7.01622712,6.08571773 C7.06669316,6.08562482 7.14427057,6.08559117 7.24895935,6.08561677 L7.24895935,6.08561904 C7.35941504,6.08564605 7.44893517,6.17520997 7.44890817,6.28566566 C7.44890802,6.28626959 7.44890514,6.28687352 7.44889952,6.28747743 C7.44808187,6.37535993 7.44964338,6.44101865 7.45358405,6.4844536 C7.46176998,6.57468064 7.46505642,6.66713935 7.4634434,6.76182973 C7.46159583,6.86969137 7.37454265,6.95665769 7.26667905,6.9583874 L7.01622712,6.96240366 L7.01622712,6.96240366 L2.63279745,6.96240366 C2.5479258,6.96240366 2.4672794,6.96175716 2.39085823,6.96046417 C2.2818557,6.95840702 2.19445448,6.86951453 2.19445448,6.76049279 L2.19445448,6.28577259 C2.19439925,6.17528519 2.28396695,6.08571743 2.39445436,6.08571736 C2.48448267,6.08571731 2.56393036,6.08571743 2.63279745,6.08571773 Z" id="形状" fill="#000000" fill-rule="nonzero"></path>
                            </g>
                        </g>
                    </g>
                </g>
            </g>
        </g>
    </g>
</svg>