<?xml version="1.0" encoding="UTF-8"?>
<svg width="58px" height="17px" viewBox="0 0 58 17" version="1.1" xmlns="http://www.w3.org/2000/svg" xmlns:xlink="http://www.w3.org/1999/xlink">
    <title>编组 41备份 2</title>
    <defs>
        <filter id="filter-1">
            <feColorMatrix in="SourceGraphic" type="matrix" values="0 0 0 0 0.262745 0 0 0 0 0.427451 0 0 0 0 0.858824 0 0 0 1.000000 0"></feColorMatrix>
        </filter>
        <linearGradient x1="33.4939946%" y1="18.1597314%" x2="77.4117288%" y2="100%" id="linearGradient-2">
            <stop stop-color="#B6B7C6" offset="0%"></stop>
            <stop stop-color="#9B9DAD" offset="49.0576553%"></stop>
            <stop stop-color="#7F8194" offset="100%"></stop>
        </linearGradient>
    </defs>
    <g id="页面-1" stroke="none" stroke-width="1" fill="none" fill-rule="evenodd">
        <g id="首页" transform="translate(-570.000000, -606.000000)">
            <g id="编组-41备份-2" transform="translate(570.000000, 606.000000)">
                <g id="编组-38" transform="translate(15.000000, 1.000000)">
                    <polygon id="矩形" fill-opacity="0.2" fill="#95B4ED" points="0 1 38.8387097 1 43 8 38.8387097 15 0 15"></polygon>
                    <path d="M7.921875,13 L7.921875,4.37988281 L10.9980469,4.37988281 L10.9980469,3.046875 L3.23242188,3.046875 L3.23242188,4.37988281 L6.26074219,4.37988281 L6.26074219,13 L7.921875,13 Z M15.7695312,13.1435547 C16.9908854,13.1435547 17.9832357,12.7436523 18.746582,11.9438477 C19.5099284,11.144043 19.8916016,10.1357422 19.8916016,8.91894531 L19.8916016,8.91894531 L19.8916016,7.12792969 C19.8916016,5.9156901 19.5087891,4.90852865 18.7431641,4.10644531 C17.9775391,3.30436198 16.9863281,2.90332031 15.7695312,2.90332031 C14.5755208,2.90332031 13.605957,3.30436198 12.8608398,4.10644531 C12.1157227,4.90852865 11.7431641,5.9156901 11.7431641,7.12792969 L11.7431641,7.12792969 L11.7431641,8.91894531 C11.7431641,10.1357422 12.116862,11.144043 12.8642578,11.9438477 C13.6116536,12.7436523 14.5800781,13.1435547 15.7695312,13.1435547 Z M15.7695312,11.7832031 C15.0403646,11.7832031 14.4638672,11.5154622 14.0400391,10.9799805 C13.6162109,10.4444987 13.4042969,9.75748698 13.4042969,8.91894531 L13.4042969,8.91894531 L13.4042969,7.11425781 C13.4042969,6.28483073 13.6150716,5.60351562 14.0366211,5.0703125 C14.4581706,4.53710938 15.0358073,4.27050781 15.7695312,4.27050781 C16.5260417,4.27050781 17.1253255,4.53710938 17.5673828,5.0703125 C18.0094401,5.60351562 18.2304688,6.28483073 18.2304688,7.11425781 L18.2304688,7.11425781 L18.2304688,8.91894531 C18.2304688,9.76204427 18.0105794,10.4501953 17.5708008,10.9833984 C17.1310221,11.5166016 16.530599,11.7832031 15.7695312,11.7832031 Z M23.3164062,13 L23.3164062,9.2265625 L25.4697266,9.2265625 C26.5680339,9.2265625 27.4282227,8.94514974 28.050293,8.38232422 C28.6723633,7.8194987 28.9833984,7.07096354 28.9833984,6.13671875 C28.9833984,5.21158854 28.6723633,4.46533203 28.050293,3.89794922 C27.4282227,3.33056641 26.5680339,3.046875 25.4697266,3.046875 L25.4697266,3.046875 L21.6552734,3.046875 L21.6552734,13 L23.3164062,13 Z M25.4697266,7.89355469 L23.3164062,7.89355469 L23.3164062,4.37988281 L25.4697266,4.37988281 C26.0849609,4.37988281 26.547526,4.5485026 26.8574219,4.88574219 C27.1673177,5.22298177 27.3222656,5.64453125 27.3222656,6.15039062 C27.3222656,6.65625 27.1673177,7.07324219 26.8574219,7.40136719 C26.547526,7.72949219 26.0849609,7.89355469 25.4697266,7.89355469 L25.4697266,7.89355469 Z M33.515625,13.1435547 C34.4863281,13.1435547 35.2792969,12.8837891 35.8945312,12.3642578 C36.5097656,11.8447266 36.8173828,11.1269531 36.8173828,10.2109375 C36.8173828,9.64127604 36.6829427,9.15478516 36.4140625,8.75146484 C36.1451823,8.34814453 35.7578125,8.04622396 35.2519531,7.84570312 C35.6940104,7.63151042 36.0392253,7.33414714 36.2875977,6.95361328 C36.5359701,6.57307943 36.6601562,6.15494792 36.6601562,5.69921875 C36.6601562,4.78776042 36.3787435,4.09391276 35.815918,3.61767578 C35.2530924,3.1414388 34.4863281,2.90332031 33.515625,2.90332031 C32.5950521,2.90332031 31.8305664,3.16194661 31.222168,3.67919922 C30.6137695,4.19645182 30.3232422,4.83561198 30.3505859,5.59667969 L30.3505859,5.59667969 L30.3642578,5.63769531 L31.9570312,5.63769531 C31.9570312,5.23665365 32.1051432,4.90283203 32.4013672,4.63623047 C32.6975911,4.36962891 33.0690104,4.23632812 33.515625,4.23632812 C33.9986979,4.23632812 34.3678385,4.37190755 34.6230469,4.64306641 C34.8782552,4.91422526 35.0058594,5.26627604 35.0058594,5.69921875 C35.0058594,6.18229167 34.8873698,6.55826823 34.6503906,6.82714844 C34.4134115,7.09602865 34.0260417,7.23046875 33.4882812,7.23046875 L33.4882812,7.23046875 L32.3808594,7.23046875 L32.3808594,8.53613281 L33.4882812,8.53613281 C34.0488281,8.53613281 34.4669596,8.67513021 34.7426758,8.953125 C35.0183919,9.23111979 35.15625,9.65266927 35.15625,10.2177734 C35.15625,10.6871745 35.008138,11.0711263 34.7119141,11.3696289 C34.4156901,11.6681315 34.0169271,11.8173828 33.515625,11.8173828 C33.0325521,11.8173828 32.637207,11.6749674 32.3295898,11.3901367 C32.0219727,11.105306 31.8681641,10.7532552 31.8681641,10.3339844 L31.8681641,10.3339844 L30.2685547,10.3339844 L30.2548828,10.375 C30.2320964,11.2317708 30.5511068,11.9073893 31.2119141,12.4018555 C31.8727214,12.8963216 32.640625,13.1435547 33.515625,13.1435547 Z" id="TOP3" fill="#436DDB" fill-rule="nonzero"></path>
                </g>
                <g filter="url(#filter-1)" id="编组">
                    <g>
                        <path d="M1.6065627,13.6112912 L1.6065627,5.28207305 C1.6065627,2.36644195 4.02084349,0 7.00022336,0 C9.98041274,0 12.393884,2.36645752 12.393884,5.28288255 L12.393884,13.6112912 L1.6065627,13.6112912 Z M7.48563258,2.39116309 L3.9977258,7.85655864 L6.78741607,7.85655864 L6.08919956,11.9558155 L9.57710635,6.49041992 L6.78741607,6.49041992 L7.48563258,2.39116309 Z M13.5623782,14.6050235 L13.5623782,15.7991285 C13.5623782,15.9095855 13.4728351,15.9991285 13.3623782,15.9991285 C13.3620883,15.9991285 13.3617985,15.9991279 13.3615086,15.9991267 L0.211568851,15.9419531 C0.101452373,15.9414743 0.012438407,15.8520725 0.012438407,15.741955 L0.012438407,14.5478414 C0.012438407,14.4373844 0.101981457,14.3478414 0.212438407,14.3478414 C0.212728303,14.3478414 0.213018199,14.347842 0.213308092,14.3478433 L13.3632479,14.4050254 C13.4733643,14.4055042 13.5623782,14.494906 13.5623782,14.6050235 Z" id="形状" fill="url(#linearGradient-2)" fill-rule="nonzero"></path>
                    </g>
                </g>
            </g>
        </g>
    </g>
</svg>